PathFileType	4	(X/Y/Z)	TRC_missing_Z7
DataRate	CameraRate	NumFrames	NumMarkers	Units	OrigDataRate	OrigDataStartFrame	OrigNumFrames
100.00	100.00	       4	45	mm	100.00	1957	       2609
Frame#	Time	T10			C7			CLAV			RACR1			LACR1			RPSI			LPSI			RASI			LASI			LTH2			LTH3			LTH1			RTH2			RTH3			RTH1			RLFC			RTB1			RTB3			RTB2			LLFC			LTB1			LTB3			LTB2			LLMAL			LCAL			RLMAL			RCAL			RMT5			RMT1			LMT5			LMT1			*31			*32			*33			*34			*35			*36			*37			*38			*39			*40			*41			*42			*43			*44			
		X1	Y1	Z1	X2	Y2	Z2	X3	Y3	Z3	X4	Y4	Z4	X5	Y5	Z5	X6	Y6	Z6	X7	Y7	X8	Y8	Z8	X9	Y9	Z9	X10	Y10	Z10	X11	Y11	Z11	X12	Y12	Z12	X13	Y13	Z13	X14	Y14	Z14	X15	Y15	Z15	X16	Y16	Z16	X17	Y17	Z17	X18	Y18	Z18	X19	Y19	Z19	X20	Y20	Z20	X21	Y21	Z21	X22	Y22	Z22	X23	Y23	Z23	X24	Y24	Z24	X25	Y25	Z25	X26	Y26	Z26	X27	Y27	Z27	X28	Y28	Z28	X29	Y29	Z29	X30	Y30	Z30	X31	Y31	Z31	X32	Y32	Z32	X33	Y33	Z33	X34	Y34	Z34	X35	Y35	Z35	X36	Y36	Z36	X37	Y37	Z37	X38	Y38	Z38	X39	Y39	Z39	X40	Y40	Z40	X41	Y41	Z41	X42	Y42	Z42	X43	Y43	Z43	X44	Y44	Z44	X45	Y45	Z45	
1957	19.560000	742.763123	1226.338745	-413.120941	734.921021	1481.793945	-287.223969	739.551514	1323.590332	-191.384735	575.369324	1430.206665	-266.333435	913.782471	1422.628540	-268.500214	690.655518	1007.017090	-490.448730	778.234192	1017.023865	-484.235779	602.893311	967.499390	-265.796021	855.643555	975.284485	-247.338028	922.139465	766.067261	-312.543427	885.446655	697.660522	-283.752777	883.451355	844.231506	-257.287445	572.003845	723.450134	-202.253662	538.337830	780.081421	-259.233795	610.722351	832.071960	-229.189865	553.210815	506.837463	-225.565231	591.015381	394.488190	-218.491180	577.173950	339.313446	-280.038208	602.224731	290.373383	-295.347076	854.371155	488.508789	-368.596588	797.130615	372.696503	-354.733246	823.207825	309.412964	-392.422943	778.915527	259.928162	-398.996704	793.137695	81.829155	-506.924652	746.766174	46.285156	-567.865967	607.965576	148.593933	-435.752228	663.698914	134.053055	-500.640411	591.500000	70.070778	-356.631470	660.015259	67.684830	-320.475006	814.949890	39.331226	-392.908936	741.525208	52.647369	-363.038727	271.159576	1036.165161	619.036011	922.089539	1056.216919	408.586456	920.110535	1057.761597	340.060852	921.925354	1055.922241	462.766144	0.000000	0.000000	0.000000	0.000000	0.000000	0.000000	0.000000	0.000000	0.000000	-18.079071	12.140427	-1119.692871	1151.569824	12.625587	-1033.606323	-0.783711	11.991721	0.838700	1167.760864	12.693695	85.314384	0.000000	0.000000	0.000000	0.000000	0.000000	0.000000	0.000000	0.000000	0.000000	
1958	19.570000	743.049500	1226.179688	-414.513275	735.233826	1481.482544	-288.350464	739.539978	1323.169556	-192.653900	575.592407	1429.993408	-268.010773	913.960876	1422.159180	-269.147797	689.941833	1006.811462	-492.015778	777.507629	1016.911682	-485.981781	603.096558	967.450195	-267.085480	855.909668	974.866638	-249.314468	921.990051	765.793640	-316.177582	885.913025	697.592896	-286.708893	883.541016	843.519470	-260.186462	572.766113	725.305725	-201.319550	538.518066	781.120117	-258.782959	611.227722	833.288025	-229.832199	554.114563	508.345703	-221.326599	591.845764	396.147766	-211.008102	577.935181	339.195313	-270.676178	602.868042	289.761627	-284.463318	854.545715	488.619598	-375.298187	797.366882	372.698395	-362.008667	823.386658	309.577972	-399.948975	779.054260	260.083282	-406.670715	793.032471	82.440430	-515.191589	746.604492	47.219837	-576.227234	608.467346	143.441589	-420.061249	664.106201	126.261131	-484.425629	591.810547	68.326904	-337.830566	660.204651	67.152061	-301.570221	814.875183	39.313316	-401.403625	741.500793	52.663727	-371.495331	0.000000	0.000000	0.000000	922.084900	1056.213379	408.597656	920.110535	1057.761597	340.060883	921.849182	1055.869385	461.777039	0.000000	0.000000	0.000000	0.000000	0.000000	0.000000	0.000000	0.000000	0.000000	-18.078890	12.140295	-1119.692749	1151.569824	12.625607	-1033.606323	-0.783727	11.991794	0.838937	1167.760864	12.693486	85.314453	0.000000	0.000000	0.000000	0.000000	0.000000	0.000000	0.000000	0.000000	0.000000	
1959	19.580000	743.262573	1225.971313	-415.893494	735.483521	1481.128296	-289.475830	739.501648	1322.712158	-193.913483	575.763306	1429.731079	-269.652710	914.083801	1421.653076	-269.836700	689.165771	1006.579712	-493.552612	776.718018	1016.767578	-487.701965	603.239136	967.343018	-268.350098	856.114563	974.402222	-251.277069	921.785767	765.499695	-319.818024	886.593750	697.661194	-289.618561	883.573914	842.783325	-263.082733	573.542908	726.983459	-200.577637	538.701843	782.015564	-258.443848	611.702026	834.369324	-230.525726	555.100647	509.725037	-217.491516	592.763794	397.735168	-203.905121	578.767578	339.016174	-261.615234	603.576477	289.118927	-273.830566	854.665222	488.751556	-381.933807	797.553345	372.713928	-369.231171	823.529175	309.767090	-407.424652	779.168762	260.261444	-414.307678	792.926575	83.090500	-523.442078	746.443054	48.207424	-584.583801	609.005554	138.307907	-404.383331	664.523926	118.549118	-468.141663	592.270447	66.612083	-319.214569	660.563110	66.688828	-282.951935	814.797607	39.303623	-409.898773	741.474609	52.674850	-379.959198	271.196198	1036.453491	618.844482	922.082947	1056.212524	408.601288	0.000000	0.000000	0.000000	921.788452	1055.827271	460.979431	0.000000	0.000000	0.000000	0.000000	0.000000	0.000000	0.000000	0.000000	0.000000	-18.078705	12.140158	-1119.692627	1151.569824	12.625626	-1033.606323	-0.783742	11.991866	0.839176	1167.760742	12.693263	85.314522	0.000000	0.000000	0.000000	0.000000	0.000000	0.000000	0.000000	0.000000	0.000000	
1960	19.590000	743.400208	1225.715576	-417.252960	735.667297	1480.734741	-290.593872	739.433289	1322.222168	-195.155228	575.878479	1429.421997	-271.249756	914.148987	1421.113892	-270.560883	688.332275	1006.322632	-495.049225	775.870300	1016.594299	-489.384949	603.320007	967.177551	-269.581512	856.257507	973.895630	-253.212753	921.528931	765.187134	-323.451904	887.534302	697.880249	-292.578857	883.551453	842.024780	-265.964203	574.319275	728.472290	-200.018600	538.881897	782.759888	-258.214081	612.136841	835.311462	-231.258408	556.161316	510.960449	-214.049652	593.768616	399.235657	-197.196686	579.670166	338.776031	-252.885178	604.354248	288.452698	-263.493134	854.730652	488.904083	-388.497528	797.690674	372.742279	-376.396576	823.636902	309.979797	-414.846619	779.260315	260.463593	-421.902832	792.820862	83.779335	-531.675598	746.282532	49.248074	-592.936768	609.584351	133.243988	-388.801880	664.956238	110.982269	-451.884827	592.878906	64.957726	-300.868652	661.089600	66.307739	-264.705109	814.718018	39.301582	-418.391846	741.447205	52.680317	-388.427887	0.000000	0.000000	0.000000	922.082520	1056.212402	408.601898	0.000000	0.000000	0.000000	921.745422	1055.797363	460.407043	0.000000	0.000000	0.000000	0.000000	0.000000	0.000000	0.000000	0.000000	0.000000	-18.078518	12.140014	-1119.692505	1151.569824	12.625645	-1033.606323	-0.783757	11.991939	0.839417	1167.760742	12.693026	85.314598	0.000000	0.000000	0.000000	0.000000	0.000000	0.000000	0.000000	0.000000	0.000000	
